# xmcd CD database file
#
# Track frame offsets:
#	150
#	76449
#	94547
#	145598
#	196924
#	250812
#
# Disc length: 4416 seconds
#
# Revision: 7
# Processed by: cddbd v1.5.2PL0 Copyright (c) Steve Scherf et al.
# Submitted via: CDex 1.51
#
DISCID=42113e06
DTITLE=Various Artist - Evgeny Svetlanov - Vol.07
DYEAR=1900
DGENRE=Classique
TTITLE0=Boris Parsadanian - Symphony N°2 'Martyros Saryan' in E flat major Op.6 - I. Maestoso [Gr.Sym. Orch.TV and Radio - 1966]
TTITLE1=Boris Parsadanian - Symphony N°2 'Martyros Saryan' in E flat major Op.6 - II. Intermezzo
TTITLE2=Boris Parsadanian - Symphony N°2 'Martyros Saryan' in E flat major Op.6 - III. Lento
TTITLE3=Boris Parsadanian - Symphony N°2 'Martyros Saryan' in E flat major Op.6 - IV. Allegro com fuoco
TTITLE4=Alexandra Pakhmutova - Concerto for Orchestra in E major  [USSR State Symphony Orchestra - 1974]
TTITLE5=Arkady Mazaev - The Krasnodonians  [Bolshoi Theatre Orchestra - 1957]
EXTD=
EXTT0=
EXTT1=
EXTT2=
EXTT3=
EXTT4=
EXTT5=
PLAYORDER=
